<svg width="16" height="10" viewBox="0 0 16 10" fill="none" xmlns="http://www.w3.org/2000/svg">
<path d="M11.31 9.53501C11.2366 9.45927 11.1956 9.35796 11.1956 9.25251C11.1956 9.14706 11.2366 9.04575 11.31 8.97001L14.63 5.25001H0.4C0.18 5.25001 0 5.07001 0 4.85001C0 4.63001 0.18 4.45001 0.4 4.45001H14.63L11.315 0.730008C11.17 0.560008 11.155 0.325008 11.31 0.170008C11.465 0.0150084 11.735 0.00500827 11.88 0.165008C11.88 0.165008 15.84 4.51501 15.88 4.56501C15.92 4.61501 16 4.70501 16 4.85001C15.9987 4.95703 15.9557 5.05931 15.88 5.13501C15.84 5.17501 11.88 9.53501 11.88 9.53501C11.8031 9.60802 11.7011 9.64872 11.595 9.64872C11.4889 9.64872 11.3869 9.60802 11.31 9.53501Z" fill="black"/>
</svg>
